<svg width="18" height="18" viewBox="0 0 18 18" fill="none" xmlns="http://www.w3.org/2000/svg">
<path fill-rule="evenodd" clip-rule="evenodd" d="M14.3158 9.36844C12.7605 9.36844 11.4816 8.1849 11.3307 6.66933C9.81513 6.5184 8.63159 5.23953 8.63159 3.68423C8.63159 3.01448 8.85106 2.396 9.222 1.89677C8.86496 1.89478 8.47678 1.89478 8.05263 1.89478C5.55126 1.89478 4.30058 1.89478 3.31402 2.30342C1.9986 2.84828 0.953509 3.89338 0.408647 5.20879C0 6.19535 0 7.44604 0 9.94741V12.6316C0 15.1623 0 16.4277 0.786187 17.2139C1.57237 18 2.83772 18 5.36842 18H8.05263C10.554 18 11.8047 18 12.7912 17.5914C14.1067 17.0465 15.1518 16.0014 15.6966 14.686C16.1053 13.6995 16.1053 12.4488 16.1053 9.94741C16.1053 9.52325 16.1053 9.13506 16.1033 8.77802C15.604 9.14897 14.9855 9.36844 14.3158 9.36844ZM5.36854 8.15769C4.81626 8.15769 4.36854 8.6054 4.36854 9.15769C4.36854 9.70997 4.81626 10.1577 5.36854 10.1577H10.737C11.2892 10.1577 11.737 9.70997 11.737 9.15769C11.737 8.6054 11.2892 8.15769 10.737 8.15769H5.36854ZM5.36854 11.7365C4.81626 11.7365 4.36854 12.1843 4.36854 12.7365C4.36854 13.2888 4.81626 13.7365 5.36854 13.7365H8.05275C8.60504 13.7365 9.05275 13.2888 9.05275 12.7365C9.05275 12.1843 8.60504 11.7365 8.05275 11.7365H5.36854Z" fill="#D6DBDE"/>
<path d="M14 7L14 1M11 4H17" stroke="#D6DBDE" stroke-width="2" stroke-linecap="round" stroke-linejoin="round"/>
</svg>
