<svg width="15" height="26" viewBox="0 0 15 26" fill="none" xmlns="http://www.w3.org/2000/svg">
<path d="M14.7071 1.70711C15.0976 1.31658 15.0976 0.683417 14.7071 0.292893C14.3166 -0.0976311 13.6834 -0.0976311 13.2929 0.292893L14.7071 1.70711ZM2 13L1.29289 12.2929L0.585786 13L1.29289 13.7071L2 13ZM13.2929 25.7071C13.6834 26.0976 14.3166 26.0976 14.7071 25.7071C15.0976 25.3166 15.0976 24.6834 14.7071 24.2929L13.2929 25.7071ZM13.2929 0.292893L1.29289 12.2929L2.70711 13.7071L14.7071 1.70711L13.2929 0.292893ZM1.29289 13.7071L13.2929 25.7071L14.7071 24.2929L2.70711 12.2929L1.29289 13.7071Z" fill="#F18F02"/>
</svg>
