<svg width="18" height="18" viewBox="0 0 18 18" fill="none" xmlns="http://www.w3.org/2000/svg">
<path fill-rule="evenodd" clip-rule="evenodd" d="M9 18C13.9706 18 18 13.9706 18 9C18 7.1666 17.4518 5.46124 16.5103 4.03891L9.35503 11.9893C8.66236 12.7589 7.49679 12.8726 6.66844 12.2513L3.4 9.8C2.95817 9.46863 2.86863 8.84183 3.2 8.4C3.53137 7.95817 4.15817 7.86863 4.6 8.2L7.86844 10.6513L15.214 2.48955C13.5986 0.947171 11.4099 0 9 0C4.02944 0 0 4.02944 0 9C0 13.9706 4.02944 18 9 18Z" fill="#32F102"/>
</svg>
