<svg width="12" height="14" viewBox="0 0 12 14" fill="none" xmlns="http://www.w3.org/2000/svg">
<path d="M5.58235 1.26234L5.23501 0.90268V0.90268L5.58235 1.26234ZM6.86382 1.26234L7.21116 0.902681L6.86382 1.26234ZM6.22308 11.4454C6.49923 11.4454 6.72308 11.2216 6.72308 10.9454C6.72308 10.6693 6.49923 10.4454 6.22308 10.4454V11.4454ZM3.95136 8.20604C3.95136 7.9299 3.7275 7.70604 3.45136 7.70604C3.17521 7.70604 2.95136 7.9299 2.95136 8.20604H3.95136ZM10.5736 8.59738C10.5736 10.7083 8.6725 12.5 6.22308 12.5V13.5C9.13141 13.5 11.5736 11.3495 11.5736 8.59738H10.5736ZM6.22308 12.5C3.77367 12.5 1.87256 10.7083 1.87256 8.59738H0.872559C0.872559 11.3495 3.31476 13.5 6.22308 13.5V12.5ZM1.87256 8.59738C1.87256 7.28048 2.52813 5.86725 3.39695 4.5873C4.2577 3.31922 5.28338 2.24617 5.92969 1.622L5.23501 0.90268C4.56344 1.55124 3.48422 2.67818 2.56955 4.02567C1.66295 5.36129 0.872559 6.97921 0.872559 8.59738H1.87256ZM6.51648 1.622C7.16279 2.24617 8.18846 3.31922 9.04922 4.5873C9.91804 5.86725 10.5736 7.28048 10.5736 8.59738H11.5736C11.5736 6.97921 10.7832 5.36129 9.87661 4.02567C8.96195 2.67818 7.88272 1.55124 7.21116 0.902681L6.51648 1.622ZM5.92969 1.622C6.09813 1.45933 6.34804 1.45933 6.51648 1.622L7.21116 0.902681C6.6552 0.365774 5.79096 0.365773 5.23501 0.90268L5.92969 1.622ZM6.22308 10.4454C5.92395 10.4454 5.62788 10.3872 5.35182 10.2742L4.97296 11.1996C5.36947 11.362 5.79424 11.4454 6.22308 11.4454V10.4454ZM5.35182 10.2742C5.07578 10.1612 4.82534 9.9957 4.61465 9.78747L3.9117 10.4987C4.21577 10.7992 4.57644 11.0373 4.97296 11.1996L5.35182 10.2742ZM4.61465 9.78747C4.40397 9.57925 4.23717 9.33238 4.12348 9.0611L3.2012 9.44763C3.36609 9.84107 3.60762 10.1982 3.9117 10.4987L4.61465 9.78747ZM4.12348 9.0611C4.00979 8.78984 3.95136 8.4993 3.95136 8.20604H2.95136C2.95136 8.63226 3.0363 9.05417 3.2012 9.44763L4.12348 9.0611Z" fill="#F15802"/>
</svg>
