<svg width="37" height="37" viewBox="0 0 37 37" fill="none" xmlns="http://www.w3.org/2000/svg">
<path fill-rule="evenodd" clip-rule="evenodd" d="M18.5 37C28.7173 37 37 28.7173 37 18.5C37 8.28271 28.7173 0 18.5 0C8.28271 0 0 8.28271 0 18.5C0 28.7173 8.28271 37 18.5 37ZM13.2673 7C12.4326 7 11.7559 7.70361 11.7559 8.57141V26.6428C11.3384 26.6428 11 26.9946 11 27.4286V29H13.2673H20.8252H23.1143V27.4286C23.1143 26.9946 22.7759 26.6428 22.3584 26.6428H22.3369V16.507C22.6497 16.483 23.2126 16.6519 23.3843 18.8643C23.3989 19.0546 23.4136 19.2513 23.4285 19.453C23.6094 21.886 23.843 25.0295 24.9497 26.1489C26.5518 27.7693 28.2251 26.5073 29.1821 25.1949C30.4346 23.4775 30.0566 19.7622 29.3225 18.8643C28.7351 18.1459 28.3867 14.8384 28.2861 13.2745C28.4011 13.282 28.6963 13.2565 28.9556 13.0948C29.2793 12.8928 29.2578 11.3888 27.3359 9.48059C25.7983 7.9541 24.363 7.73706 23.8376 7.81934V8.6051C24.7805 8.52283 26.8608 10.3113 26.8608 12.3092C26.8608 14.3071 27.2927 18.4827 28.2861 20.4132C29.0569 21.9116 29.1248 24.8394 26.8069 25.1949C25.168 25.4463 24.9236 22.3121 24.7151 19.6368C24.6287 18.5284 24.5483 17.4988 24.3774 16.8214C23.9509 15.13 22.9202 14.7361 22.3369 14.744V8.57141C22.3369 7.70361 21.6602 7 20.8252 7H13.2673ZM14.3472 8.57141C13.7507 8.57141 13.2673 9.07397 13.2673 9.69385V14.5204C13.2673 15.1404 13.7507 15.6428 14.3472 15.6428H19.7456C20.3418 15.6428 20.8252 15.1404 20.8252 14.5204V9.69385C20.8252 9.07397 20.3418 8.57141 19.7456 8.57141H14.3472Z" fill="#FF9B0B"/>
</svg>
