<svg width="18" height="18" viewBox="0 0 18 18" fill="none" xmlns="http://www.w3.org/2000/svg">
<path fill-rule="evenodd" clip-rule="evenodd" d="M17.5433 3.7039C18 4.80653 18 6.20435 18 9C18 11.7956 18 13.1935 17.5433 14.2961C16.9343 15.7663 15.7663 16.9343 14.2961 17.5433C13.1935 18 11.7956 18 9 18H6C3.17157 18 1.75736 18 0.87868 17.1213C0 16.2426 0 14.8284 0 12V9C0 6.20435 0 4.80653 0.456723 3.7039C1.06569 2.23373 2.23373 1.06569 3.7039 0.456723C4.80653 0 6.20435 0 9 0C11.7956 0 13.1935 0 14.2961 0.456723C15.7663 1.06569 16.9343 2.23373 17.5433 3.7039ZM4.99999 6.99968C4.99999 6.4474 5.44771 5.99968 5.99999 5.99968H12C12.5523 5.99968 13 6.4474 13 6.99968C13 7.55197 12.5523 7.99968 12 7.99968H5.99999C5.44771 7.99968 4.99999 7.55197 4.99999 6.99968ZM4.99999 10.9997C4.99999 10.4474 5.44771 9.9997 5.99999 9.9997H8.99999C9.55228 9.9997 9.99999 10.4474 9.99999 10.9997C9.99999 11.552 9.55228 11.9997 8.99999 11.9997H5.99999C5.44771 11.9997 4.99999 11.552 4.99999 10.9997Z" fill="#D6DBDE"/>
</svg>
