<svg width="16" height="18" viewBox="0 0 16 18" fill="none" xmlns="http://www.w3.org/2000/svg">
<path fill-rule="evenodd" clip-rule="evenodd" d="M0.307831 5.80419C0 6.47348 0 7.23489 0 8.75773V13.5137C0 15.6285 0 16.686 0.657007 17.343C1.26686 17.9528 2.22173 17.9966 4.04708 17.9998V12.3922C4.04708 11.2204 4.99695 10.2706 6.16866 10.2706H9.53341C10.7051 10.2706 11.655 11.2204 11.655 12.3922V17.9998C13.4804 17.9966 14.4353 17.9529 15.0451 17.343C15.7021 16.686 15.7021 15.6285 15.7021 13.5137V8.75773C15.7021 7.23489 15.7021 6.47348 15.3943 5.80419C15.0865 5.13489 14.5084 4.63937 13.3521 3.64832L12.2306 2.68697C10.1407 0.895655 9.09577 0 7.85107 0C6.60637 0 5.56144 0.895655 3.47158 2.68697L2.35 3.64832C1.19377 4.63937 0.615661 5.13489 0.307831 5.80419ZM9.65499 18V12.3922C9.65499 12.325 9.60056 12.2706 9.53341 12.2706H6.16866C6.10152 12.2706 6.04708 12.325 6.04708 12.3922V18H9.65499Z" fill="#D6DBDE"/>
</svg>
