<svg width="14" height="10" viewBox="0 0 14 10" fill="none" xmlns="http://www.w3.org/2000/svg">
<path d="M12.8192 8.46483L12.6912 8.94815L13.1717 9.07549L13.3018 8.59567L12.8192 8.46483ZM1.22813 8.46483L0.745548 8.59567L0.875632 9.07549L1.35619 8.94816L1.22813 8.46483ZM7.53415 7.3137L7.94467 7.02826L7.53415 7.3137ZM5.33639 8.80636L5.74691 8.52093L5.33639 8.80636ZM3.35254 4.45011L3.81312 4.25551L3.35254 4.45011ZM4.13062 3.92166L4.47376 3.55799L4.13062 3.92166ZM6.52368 2.31778C6.52368 2.59393 6.74754 2.81778 7.02368 2.81778C7.29982 2.81778 7.52368 2.59393 7.52368 2.31778H6.52368ZM3.13248 2.38105C2.93608 2.18694 2.6195 2.18879 2.42539 2.3852C2.23127 2.5816 2.23313 2.89818 2.42953 3.09229L3.13248 2.38105ZM3.37234 4.02411C3.56875 4.21822 3.88532 4.21636 4.07944 4.01996C4.27355 3.82355 4.27169 3.50698 4.07529 3.31286L3.37234 4.02411ZM11.6178 3.09229C11.8142 2.89818 11.8161 2.5816 11.622 2.3852C11.4279 2.18879 11.1113 2.18694 10.9149 2.38105L11.6178 3.09229ZM9.97207 3.31286C9.77567 3.50698 9.77381 3.82355 9.96793 4.01996C10.162 4.21636 10.4786 4.21822 10.675 4.02411L9.97207 3.31286ZM11.6594 7.64027C11.3925 7.56954 11.1188 7.72859 11.048 7.99552C10.9773 8.26245 11.1364 8.53618 11.4033 8.60691L11.6594 7.64027ZM2.64407 8.60691C2.91101 8.53618 3.07006 8.26245 2.99933 7.99552C2.9286 7.72859 2.65488 7.56954 2.38795 7.64027L2.64407 8.60691ZM13.3018 8.59567C13.5603 7.64222 13.5934 6.64268 13.3986 5.67449L12.4182 5.87179C12.5825 6.68783 12.5546 7.53024 12.3367 8.334L13.3018 8.59567ZM13.3986 5.67449C13.2037 4.70631 12.7862 3.79584 12.1787 3.01343L11.3889 3.62668C11.9019 4.28753 12.254 5.05574 12.4182 5.87179L13.3986 5.67449ZM12.1787 3.01343C11.5713 2.23104 10.7903 1.59774 9.89648 1.16209L9.45835 2.061C10.2153 2.42996 10.8758 2.96581 11.3889 3.62668L12.1787 3.01343ZM9.89648 1.16209C9.00266 0.726451 8.01974 0.5 7.02368 0.5V1.5C7.86828 1.5 8.70133 1.69204 9.45835 2.061L9.89648 1.16209ZM7.02368 0.5C6.02762 0.5 5.0447 0.726451 4.15089 1.16209L4.58901 2.061C5.34603 1.69204 6.17909 1.5 7.02368 1.5V0.5ZM4.15089 1.16209C3.25705 1.59774 2.47605 2.23104 1.86862 3.01343L2.6585 3.62668C3.17159 2.96581 3.83202 2.42996 4.58901 2.061L4.15089 1.16209ZM1.86862 3.01343C1.26117 3.79584 0.843654 4.70631 0.648799 5.67449L1.62914 5.87179C1.79338 5.05574 2.14544 4.28753 2.6585 3.62668L1.86862 3.01343ZM0.648799 5.67449C0.453941 6.64268 0.487059 7.64222 0.745548 8.59567L1.71071 8.334C1.4928 7.53024 1.46491 6.68783 1.62914 5.87179L0.648799 5.67449ZM7.12363 7.59913C7.22557 7.74575 7.22491 8.16523 6.74277 8.49269L7.30461 9.31994C8.03626 8.82302 8.49268 7.81643 7.94467 7.02826L7.12363 7.59913ZM6.74277 8.49269C6.26046 8.82027 5.85334 8.67401 5.74691 8.52093L4.92586 9.0918C5.46938 9.8735 6.57313 9.81674 7.30461 9.31994L6.74277 8.49269ZM5.74691 8.52093C5.69647 8.44839 5.59541 8.26288 5.44903 7.96222C5.30845 7.67347 5.14 7.308 4.95704 6.89957C4.59137 6.08328 4.17305 5.10738 3.81312 4.25551L2.89197 4.64471C3.25286 5.49888 3.67441 6.48241 4.04443 7.3084C4.22931 7.72111 4.40266 8.09748 4.54993 8.39996C4.6914 8.69054 4.82425 8.94565 4.92586 9.0918L5.74691 8.52093ZM3.78748 4.28533C4.4631 4.92281 5.23496 5.65865 5.87495 6.28871C6.19516 6.60396 6.48003 6.89044 6.70243 7.12371C6.93398 7.36659 7.07313 7.5265 7.12363 7.59913L7.94467 7.02826C7.84312 6.88221 7.64992 6.66834 7.42621 6.43369C7.19335 6.18943 6.90004 5.89461 6.57651 5.5761C5.92902 4.93865 5.15117 4.19717 4.47376 3.55799L3.78748 4.28533ZM3.81312 4.25551C3.80945 4.24684 3.81041 4.24539 3.81063 4.25025C3.81084 4.25501 3.81013 4.26123 3.80809 4.26742C3.80426 4.27905 3.79922 4.2816 3.80074 4.28057C3.80224 4.27955 3.8 4.28202 3.7916 4.28158C3.78696 4.28134 3.78277 4.28022 3.78008 4.27906C3.77726 4.27785 3.78005 4.27832 3.78748 4.28533L4.47376 3.55799C3.71917 2.846 2.46266 3.62864 2.89197 4.64471L3.81312 4.25551ZM6.52368 1V2.31778H7.52368V1H6.52368ZM2.42953 3.09229L3.37234 4.02411L4.07529 3.31286L3.13248 2.38105L2.42953 3.09229ZM10.9149 2.38105L9.97207 3.31286L10.675 4.02411L11.6178 3.09229L10.9149 2.38105ZM12.9473 7.98151L11.6594 7.64027L11.4033 8.60691L12.6912 8.94815L12.9473 7.98151ZM1.35619 8.94816L2.64407 8.60691L2.38795 7.64027L1.10006 7.98151L1.35619 8.94816Z" fill="#F18F02"/>
</svg>
