<svg width="16" height="17" viewBox="0 0 16 17" fill="none" xmlns="http://www.w3.org/2000/svg">
<path d="M6.53425 13.4272C7.94477 13.4272 9.26182 12.9598 10.3324 12.1809L14.3601 16.2834C14.547 16.4738 14.7934 16.569 15.0483 16.569C15.6006 16.569 16 16.1362 16 15.5823C16 15.3226 15.915 15.0803 15.7281 14.8899L11.726 10.8047C12.5672 9.67957 13.0685 8.28611 13.0685 6.77148C13.0685 3.11041 10.1285 0.115768 6.53425 0.115768C2.93149 0.115768 0 3.11041 0 6.77148C0 10.4326 2.93149 13.4272 6.53425 13.4272ZM6.53425 11.9905C3.72172 11.9905 1.41052 9.62764 1.41052 6.77148C1.41052 3.91532 3.72172 1.5525 6.53425 1.5525C9.33829 1.5525 11.658 3.91532 11.658 6.77148C11.658 9.62764 9.33829 11.9905 6.53425 11.9905Z" fill="#8E8E93"/>
</svg>
