<svg width="37" height="37" viewBox="0 0 37 37" fill="none" xmlns="http://www.w3.org/2000/svg">
<path fill-rule="evenodd" clip-rule="evenodd" d="M18.5 37C28.7173 37 37 28.7173 37 18.5C37 8.28271 28.7173 0 18.5 0C8.28271 0 0 8.28271 0 18.5C0 28.7173 8.28271 37 18.5 37ZM28.0952 14.6364C28.0952 13.7828 28.7561 13.0909 29.5715 13.0909C30.3867 13.0909 31.0476 13.7828 31.0476 14.6364C31.0476 15.4899 30.3867 16.1818 29.5715 16.1818C28.7561 16.1818 28.0952 15.4899 28.0952 14.6364ZM29.5715 10C27.1255 10 25.1428 12.0758 25.1428 14.6364C25.1428 15.3522 25.2979 16.03 25.5745 16.6353L24.8372 17.4072C24.0642 18.2164 23.5635 18.7377 23.1489 19.09C22.9636 19.2474 22.824 19.3455 22.7168 19.4073C22.5957 19.4773 22.5161 19.5011 22.4583 19.5122C22.2812 19.5464 22.0996 19.5464 21.9226 19.5122C21.8137 19.4912 21.6267 19.4253 21.2319 19.09C20.8174 18.7377 20.3167 18.2164 19.5439 17.4072L19.4919 17.3528C18.7856 16.6133 18.1765 15.9757 17.6282 15.5099C17.0464 15.0156 16.4067 14.6014 15.6128 14.4481C15.0818 14.3456 14.5374 14.3456 14.0063 14.4481C13.2122 14.6014 12.5725 15.0156 11.9907 15.5099C11.4424 15.9757 10.8335 16.6133 10.1272 17.3528L9.33789 18.1791C8.75977 17.8895 8.1123 17.7273 7.42847 17.7273C4.98267 17.7273 3 19.8031 3 22.3636C3 24.9242 4.98267 27 7.42847 27C9.87451 27 11.8572 24.9242 11.8572 22.3636C11.8572 21.6478 11.7021 20.97 11.4255 20.3647L12.1628 19.5928C12.9358 18.7836 13.4365 18.2623 13.8511 17.91C14.2458 17.5747 14.4329 17.5088 14.5417 17.4878C14.7188 17.4536 14.9004 17.4536 15.0774 17.4878C15.1863 17.5088 15.3733 17.5747 15.7678 17.91C16.1826 18.2623 16.6831 18.7836 17.4561 19.5928L17.5081 19.6472C18.2144 20.3867 18.8235 21.0243 19.3718 21.4901C19.9536 21.9844 20.5933 22.3986 21.3872 22.5519C21.9182 22.6544 22.4626 22.6544 22.9937 22.5519C23.7878 22.3986 24.4275 21.9844 25.0093 21.4901C25.5574 21.0245 26.166 20.3875 26.8713 19.6487L26.8728 19.6472L27.6621 18.8209C28.2402 19.1105 28.8877 19.2727 29.5715 19.2727C32.0173 19.2727 34 17.1969 34 14.6364C34 12.0758 32.0173 10 29.5715 10ZM5.95239 22.3636C5.95239 21.5101 6.61328 20.8182 7.42847 20.8182C8.2439 20.8182 8.90479 21.5101 8.90479 22.3636C8.90479 23.2172 8.2439 23.9091 7.42847 23.9091C6.61328 23.9091 5.95239 23.2172 5.95239 22.3636Z" fill="#FF9B0B"/>
</svg>
